<?xml version="1.0" standalone="no"?>
<!DOCTYPE svg PUBLIC "-//W3C//DTD SVG 20010904//EN"
 "http://www.w3.org/TR/2001/REC-SVG-20010904/DTD/svg10.dtd">
<svg version="1.0" xmlns="http://www.w3.org/2000/svg"
 width="512.000000pt" height="512.000000pt" viewBox="0 0 512.000000 512.000000"
 preserveAspectRatio="xMidYMid meet">

<g transform="translate(0.000000,512.000000) scale(0.100000,-0.100000)"
fill="#000000" stroke="none">
<path d="M669 4661 l-29 -30 2 -1568 3 -1568 24 -53 c30 -66 113 -144 177
-166 42 -14 120 -16 609 -16 l561 0 38 -85 c230 -511 786 -813 1341 -730 536
81 946 475 1061 1020 25 121 23 351 -5 482 -81 384 -320 702 -657 875 -169 87
-334 131 -536 144 l-108 7 -2 834 -3 835 -28 24 -28 24 -1195 0 -1196 0 -29
-29z m2309 -923 l-3 -792 -70 -17 c-125 -31 -277 -96 -391 -169 l-48 -30 -710
0 -710 0 -23 -22 c-32 -30 -31 -81 2 -113 l24 -25 617 0 617 0 -27 -32 c-58
-72 -130 -176 -164 -240 l-37 -68 -504 0 c-504 0 -505 0 -528 -22 -32 -30 -31
-81 2 -113 l24 -25 472 0 471 0 -5 -22 c-8 -39 -36 -191 -42 -230 l-6 -38
-398 0 c-377 0 -400 -1 -422 -19 -22 -17 -24 -28 -29 -139 -5 -117 -6 -122
-34 -151 -54 -56 -134 -64 -190 -20 -60 47 -56 -58 -56 1579 l0 1500 1085 0
1085 0 -2 -792z m423 -953 c337 -59 635 -281 793 -592 133 -262 154 -578 55
-859 -167 -478 -639 -781 -1142 -734 -499 48 -908 430 -987 922 -18 114 -8
351 19 453 81 297 282 552 551 699 81 44 254 102 340 114 102 15 279 13 371
-3z m-1456 -1200 c3 -19 7 -52 10 -72 3 -21 8 -50 11 -65 l6 -28 -371 0 c-204
0 -371 2 -371 5 0 2 7 30 15 62 8 31 15 74 15 95 l0 38 340 0 339 0 6 -35z"/>
<path d="M1025 4215 c-33 -32 -34 -83 -2 -113 l23 -22 851 0 852 0 20 26 c28
36 27 79 -4 109 l-24 25 -846 0 -846 0 -24 -25z"/>
<path d="M1045 3728 c-52 -28 -61 -89 -19 -129 l26 -24 845 0 845 0 24 28 c39
45 29 98 -23 125 -30 16 -1669 16 -1698 0z"/>
<path d="M1051 3229 c-44 -18 -63 -66 -45 -114 18 -45 13 -45 893 -45 l829 0
31 26 c38 32 41 72 7 111 l-24 28 -834 2 c-521 1 -842 -2 -857 -8z"/>
<path d="M3690 2374 c-45 -21 -114 -84 -385 -354 l-330 -329 -97 95 c-117 114
-178 147 -272 147 -84 0 -154 -32 -210 -94 -76 -85 -95 -187 -55 -296 20 -52
44 -80 243 -279 252 -252 275 -268 391 -267 126 0 119 -5 621 497 502 502 498
497 499 621 0 86 -35 166 -97 219 -82 70 -208 87 -308 40z m176 -150 c43 -20
64 -59 64 -116 l0 -43 -453 -452 -452 -453 -50 0 -49 0 -213 212 c-227 226
-244 250 -223 312 18 56 53 81 115 81 l53 0 140 -137 c130 -129 142 -138 178
-138 36 0 51 13 408 369 204 203 378 371 386 374 28 10 62 7 96 -9z"/>
</g>
</svg>
