<svg xmlns="http://www.w3.org/2000/svg" viewBox="0 0 32 32" id="send">
  <defs>
    <linearGradient id="a" x1="7.739" x2="24.624" y1="29.736" y2=".492" gradientUnits="userSpaceOnUse">
      <stop offset="0" stop-color="#3cacb6"></stop>
      <stop offset="1" stop-color="#8ccead"></stop>
    </linearGradient>
  </defs>
  <path fill="url(#a)" d="M29.067,3.127c-.478-.478-1.177-.641-1.859-.411L8.62,9.821c-.739,.26-1.218,.957-1.192,1.741,.023,.763,.521,1.413,1.246,1.636l7.424,2.9,2.9,7.423c.222,.724,.87,1.222,1.633,1.247,.021,0,.04,0,.06,0,.769,0,1.442-.481,1.677-1.179L29.492,4.949c.218-.645,.055-1.343-.425-1.822Zm-8.373,19.241l-2.693-6.895,2.627-2.628c.391-.391,.391-1.024,0-1.414-.391-.391-1.023-.391-1.414,0l-2.687,2.687-6.7-2.617L27.418,4.776l-6.724,17.592Zm-5.987-3.661L5.707,27.707c-.195,.195-.451,.293-.707,.293s-.512-.098-.707-.293c-.391-.391-.391-1.023,0-1.414l9-9c.391-.391,1.023-.391,1.414,0s.391,1.023,0,1.414Zm2,5l-4,4c-.195,.195-.451,.293-.707,.293s-.512-.098-.707-.293c-.391-.391-.391-1.023,0-1.414l4-4c.391-.391,1.023-.391,1.414,0s.391,1.023,0,1.414Zm-12.414-3c-.391-.391-.391-1.023,0-1.414l4-4c.391-.391,1.023-.391,1.414,0s.391,1.023,0,1.414l-4,4c-.195,.195-.451,.293-.707,.293s-.512-.098-.707-.293Z"></path>
</svg>
